<svg width="49" height="41" viewBox="0 0 49 41" fill="none" xmlns="http://www.w3.org/2000/svg">
<path d="M3.79955 10.4614C3.76841 13.2387 3.73553 16.0177 3.70093 18.7984C6.05118 19.352 8.27195 20.3523 10.2412 21.7445C8.09224 17.9818 5.94503 14.2207 3.79955 10.4614Z" fill="black"/>
<path d="M3.41028 35.7102V39.5505L10.8745 39.7986C11.0613 39.7986 11.3053 39.7417 11.3209 39.6487C11.3728 39.3644 9.16674 38.9509 7.02299 37.9792C5.72323 37.3854 4.50838 36.6224 3.41028 35.7102Z" fill="black"/>
<path d="M35.307 39.8192L34.3675 38.098C34.1675 37.9187 33.9243 37.794 33.6616 37.7362C33.3554 37.6761 33.0383 37.7048 32.748 37.8189C31.477 38.1804 30.181 38.4481 28.8706 38.62C27.8377 38.7535 26.7977 38.8243 25.7562 38.832C25.9897 39.2299 26.2233 39.6227 26.4621 40.0156L35.307 39.8192Z" fill="#FEA621"/>
<path d="M12.904 0.0465177L22.3977 13.9036C22.3977 11.6053 22.3891 9.30698 22.3718 7.00866L36.5268 7.10686C37.8765 7.33253 39.1068 8.01474 40.0102 9.03847C40.9136 10.0622 41.4349 11.3648 41.4861 12.7267C41.5373 14.0885 41.1154 15.4263 40.2914 16.5145C39.4674 17.6026 38.2918 18.3745 36.9628 18.7001H26.0312L40.2485 39.2816H49L38.6186 24.8094C41.6044 24.1891 44.263 22.5116 46.1013 20.0881C47.9396 17.6646 48.8329 14.6595 48.6155 11.63C48.3981 8.60063 47.0847 5.75251 44.919 3.61389C42.7533 1.47526 39.8822 0.191258 36.8382 0L12.904 0.0465177Z" fill="black"/>
<path d="M3.56601 20.3542C3.5141 20.654 3.24418 22.3803 4.20446 23.0988C4.28498 23.1598 4.37202 23.2118 4.46399 23.2538L11.0354 25.8382C11.2067 25.3213 11.4403 24.3341 10.9523 23.8379C10.786 23.6964 10.5857 23.6003 10.371 23.5588L7.82236 22.6181C7.28046 22.4438 6.74849 22.2401 6.22882 22.0082C6.08348 21.9358 5.59556 21.6981 4.97787 21.3259C4.49023 21.0273 4.01894 20.7029 3.56601 20.3542Z" fill="black"/>
<path d="M3.35319 24.3081C3.30128 24.6131 3.03137 26.3342 3.98645 27.0578C4.06845 27.1166 4.15527 27.1685 4.24599 27.2129L10.8226 29.7972C10.9887 29.2803 11.2223 28.2879 10.7343 27.7969C10.568 27.6555 10.3677 27.5593 10.153 27.5178L7.60954 26.5771C7.06689 26.387 6.53494 26.1679 6.01601 25.9207C5.87067 25.8535 5.37756 25.6106 4.75986 25.2385C4.27483 24.9533 3.80528 24.6427 3.35319 24.3081Z" fill="black"/>
<path d="M3.35319 27.9985C3.30128 28.2983 3.03137 30.0246 3.98645 30.7431C4.06845 30.8019 4.15527 30.8538 4.24599 30.8981L10.8226 33.4824C10.9887 32.9656 11.2223 31.9784 10.7343 31.4822C10.568 31.3407 10.3677 31.2446 10.153 31.2031L7.60954 30.2779C7.06609 30.0919 6.53401 29.8744 6.01601 29.6267C5.87067 29.5543 5.37756 29.3165 4.75986 28.9444C4.27447 28.6542 3.80491 28.3384 3.35319 27.9985Z" fill="black"/>
<path d="M3.17147 31.9009C3.11957 32.2007 2.84966 33.927 3.80993 34.6454C3.89045 34.7065 3.97749 34.7585 4.06947 34.8005L10.6409 37.3848C10.807 36.8679 11.0457 35.8807 10.5526 35.3845C10.389 35.242 10.1901 35.1457 9.97645 35.1054L7.42784 34.1647C6.87956 33.986 6.34227 33.7755 5.81872 33.5342C5.67338 33.4618 5.18546 33.224 4.56258 32.8519C4.08237 32.5595 3.61802 32.2421 3.17147 31.9009Z" fill="black"/>
<path d="M0 1.58183L0.939519 2.88432C1.36029 3.24237 1.90233 3.42721 2.4552 3.40118C2.63298 3.38951 2.80798 3.35117 2.97426 3.28747L9.68062 1.63868C9.64429 1.53531 9.582 1.39576 9.50414 1.22519C9.37733 0.892537 9.18496 0.588512 8.93835 0.331019C8.74543 0.233044 8.5329 0.179398 8.31641 0.174031C8.09992 0.168664 7.88498 0.211712 7.6874 0.300007C5.93372 0.783323 4.15163 1.1579 2.35138 1.4216C1.57418 1.54661 0.787066 1.60024 0 1.58183Z" fill="#FEA621"/>
<path d="M2.45001 4.66734L3.38953 5.94916C3.8048 6.32029 4.34744 6.51829 4.90521 6.5022C5.08292 6.48664 5.2576 6.44664 5.42428 6.38333L12.1514 4.74487C12.1151 4.64667 12.0528 4.50195 11.9749 4.33655C11.8494 4.00326 11.6569 3.69899 11.4091 3.44238C11.2143 3.33953 10.9985 3.28235 10.7781 3.27518C10.5577 3.26802 10.3386 3.31106 10.1374 3.40103C8.3767 3.8856 6.58773 4.2619 4.78063 4.52779C4.00955 4.64395 3.22952 4.69065 2.45001 4.66734Z" fill="#FEA621"/>
<path d="M4.32385 7.91338L5.26336 9.19003C5.6756 9.56726 6.21941 9.76939 6.77905 9.75341C6.95698 9.7428 7.13214 9.70443 7.29812 9.6397L14.0045 7.99091C13.9681 7.8927 13.9058 7.74798 13.828 7.57742C13.6998 7.24544 13.5076 6.94166 13.2622 6.68324C13.067 6.58122 12.8509 6.52492 12.6305 6.51865C12.4102 6.51238 12.1912 6.5563 11.9905 6.64706C10.2366 7.13081 8.45458 7.5071 6.65447 7.77382C5.88313 7.88753 5.10332 7.93422 4.32385 7.91338Z" fill="#FEA621"/>
<path d="M6.63885 10.663L7.57837 11.9396C7.9906 12.3169 8.5344 12.519 9.09404 12.503C9.27183 12.4913 9.44682 12.453 9.61311 12.3893L16.3195 10.7405C16.2831 10.6423 16.2208 10.4976 16.1378 10.327C16.0132 9.99449 15.8225 9.69037 15.5772 9.43285C15.3811 9.33075 15.1642 9.27443 14.9429 9.26817C14.7217 9.2619 14.5019 9.30584 14.3003 9.39667C12.5483 9.88083 10.768 10.2571 8.96947 10.5234C8.19813 10.6371 7.41832 10.6838 6.63885 10.663Z" fill="#FEA621"/>
<path d="M8.70996 13.9037L9.64428 15.1855C10.058 15.5604 10.6008 15.7622 11.16 15.7489C11.3372 15.7336 11.5117 15.6954 11.679 15.6352L18.3906 13.9812C18.349 13.883 18.2919 13.7435 18.2089 13.5729C18.0865 13.2505 17.9012 12.9554 17.6639 12.7046C17.4687 12.6028 17.253 12.5463 17.0328 12.5391C16.8126 12.5319 16.5936 12.5744 16.3922 12.6632C14.6409 13.1504 12.8604 13.5268 11.0613 13.79C10.2826 13.8985 9.49559 13.9365 8.70996 13.9037Z" fill="#FEA621"/>
<path d="M10.7447 17.1497L11.6842 18.4315C12.0979 18.8064 12.6407 19.0082 13.1999 18.9949C13.3776 18.9793 13.5523 18.9393 13.7189 18.876L20.4253 17.2272C20.3719 17.088 20.3113 16.9518 20.2436 16.8189C20.1187 16.4838 19.9262 16.1777 19.6778 15.9196C19.4823 15.8186 19.2663 15.763 19.0461 15.7567C18.8259 15.7504 18.6072 15.7937 18.4061 15.8834C16.6575 16.3671 14.8807 16.7434 13.0857 17.0101C12.3112 17.1269 11.5277 17.1736 10.7447 17.1497Z" fill="#FEA621"/>
<path d="M13.0857 20.3233L14.02 21.6051C14.4364 21.9789 14.9804 22.1804 15.5409 22.1685C15.7186 22.1529 15.8933 22.1129 16.0599 22.0496L22.7663 20.4008C22.7248 20.3026 22.6677 20.1579 22.5846 19.9925C22.4577 19.6584 22.2654 19.3527 22.0189 19.0931C21.8233 18.9922 21.6073 18.9365 21.3871 18.9303C21.167 18.924 20.9482 18.9673 20.7471 19.057C18.9951 19.5411 17.2148 19.9174 15.4163 20.1837C14.6452 20.2996 13.8652 20.3463 13.0857 20.3233Z" fill="#FEA621"/>
<path d="M15.162 23.3985L16.1015 24.6803C16.5152 25.0552 17.058 25.257 17.6172 25.2437C17.7944 25.2285 17.9689 25.1902 18.1362 25.13L24.8426 23.4761C24.8063 23.3779 24.744 23.2331 24.6661 23.0677C24.5406 22.7344 24.3481 22.4302 24.1003 22.1736C23.9052 22.0718 23.6894 22.0153 23.4692 22.0081C23.249 22.0009 23.0301 22.0434 22.8286 22.1322C21.0747 22.616 19.2927 22.9923 17.4926 23.259C16.7215 23.3751 15.9415 23.4218 15.162 23.3985Z" fill="#FEA621"/>
<path d="M16.9943 26.66L17.9338 27.9366C18.346 28.3138 18.8898 28.516 19.4495 28.5C19.6272 28.4883 19.8022 28.45 19.9685 28.3863L26.6749 26.7375C26.6333 26.6393 26.5763 26.4946 26.4932 26.3292C26.3663 25.995 26.174 25.6894 25.9274 25.4298C25.7322 25.3278 25.5162 25.2715 25.2958 25.2652C25.0754 25.259 24.8565 25.3029 24.6557 25.3936C22.9037 25.8778 21.1234 26.2541 19.3249 26.5204C18.5535 26.6337 17.7737 26.6804 16.9943 26.66Z" fill="#FEA621"/>
<path d="M19.2107 29.8903L20.145 31.1669C20.5598 31.54 21.1019 31.7415 21.6607 31.7303C21.8383 31.7174 22.0131 31.6791 22.1798 31.6166L28.8913 29.9626C28.8498 29.8644 28.7927 29.7249 28.7096 29.5543C28.5841 29.221 28.3916 28.9168 28.1438 28.6601C27.9487 28.5584 27.7329 28.5018 27.5127 28.4947C27.2925 28.4875 27.0736 28.5299 26.8721 28.6188C25.128 29.1104 23.3545 29.4919 21.5621 29.7611C20.7839 29.8753 19.9968 29.9185 19.2107 29.8903Z" fill="#FEA621"/>
<path d="M21.7749 33.131L22.7144 34.4128C23.1281 34.7877 23.6709 34.9894 24.2301 34.9762C24.4078 34.9606 24.5825 34.9206 24.7492 34.8573L31.4555 33.2085C31.4192 33.1103 31.3569 32.9656 31.279 32.8002C31.1597 32.4686 30.9743 32.1645 30.734 31.906C30.5392 31.8032 30.3233 31.746 30.103 31.7388C29.8826 31.7316 29.6634 31.7747 29.4623 31.8647C27.7084 32.3484 25.9264 32.7247 24.1263 32.9914C23.3484 33.1088 22.5613 33.1555 21.7749 33.131Z" fill="#FEA621"/>
<path d="M23.5345 35.8548L24.4741 37.1366C24.8877 37.5115 25.4306 37.7133 25.9897 37.7C26.1668 37.6837 26.3412 37.6455 26.5088 37.5863L33.2152 35.9324C33.1788 35.8342 33.1165 35.6894 33.0387 35.524C32.9132 35.1907 32.7206 34.8865 32.4729 34.6299C32.2777 34.5281 32.062 34.4716 31.8418 34.4644C31.6216 34.4572 31.4026 34.4997 31.2012 34.5885C29.4473 35.0723 27.6653 35.4486 25.8652 35.7153C25.0941 35.8314 24.3141 35.8781 23.5345 35.8548Z" fill="#FEA621"/>
</svg>
